<svg xmlns="http://www.w3.org/2000/svg" viewBox="0 0 754.72 616.42"><defs><style>.cls-1{fill:#1a129f;stroke:#000;stroke-miterlimit:10;}</style></defs><g id="Layer_2" data-name="Layer 2"><g id="Layer_1-2" data-name="Layer 1"><path class="cls-1" d="M754.22.5V615.67a352.92,352.92,0,0,1-62-33.17c-25.38-17.06-40.05-26.92-52-46-19.81-31.62-5.77-46.45-23-80-1.32-2.57-25.64-48.34-72-61-28.44-7.76-36.31,4.81-92,6-15.14.32-43.76.94-75-6-26.11-5.8-81.06-18-112-60-32.48-44.09-4.77-75.24-41-133-18.78-29.94-42.17-47-60-60-61.52-44.86-97.34-32.87-130-66C15.82,56.82,4.23,28,.57.5Z"/></g></g></svg>